USFL
nRows=110
nColumns=2
inDegrees=yes
endheader
time	med_gas_r	
3.72177	 48.043693	
3.79335	 47.946323	
3.86492	 48.077040	
3.93649	 47.993889	
4.00806	 47.950408	
4.07964	 48.090609	
4.15121	 48.030282	
4.22278	 48.173560	
4.29435	 48.041564	
4.36593	 48.053522	
4.4375	 48.153346	
4.50907	 48.135906	
4.58065	 48.148752	
4.65222	 48.105463	
4.72379	 48.134295	
4.79536	 48.166162	
4.86694	 48.046268	
4.93851	 48.138654	
5.01008	 48.096762	
5.08165	 48.154297	
5.15323	 48.065879	
5.2248	 48.000346	
5.29637	 48.065743	
5.36794	 48.073807	
5.43952	 48.097650	
5.51109	 48.060446	
5.58266	 48.116297	
5.65423	 48.034491	
5.72581	 48.002407	
5.79738	 48.048530	
5.86895	 48.116246	
5.94052	 48.041810	
6.0121	 48.047960	
6.08367	 48.050526	
6.15524	 48.155059	
6.22681	 47.678984	
6.29839	 44.713677	
6.36996	 42.200287	
6.44153	 37.534484	
6.5131	 33.824631	
6.58468	 31.382283	
6.65625	 30.758639	
6.72782	 29.250880	
6.7994	 28.921159	
6.87097	 27.232539	
6.94254	 27.326022	
7.01411	 27.252571	
7.08569	 27.558373	
7.15726	 27.522962	
7.22883	 27.063168	
7.3004	 26.553188	
7.37198	 26.632924	
7.44355	 26.973271	
7.51512	 26.984353	
7.58669	 26.726944	
7.65827	 26.834654	
7.72984	 26.835927	
7.80141	 26.829951	
7.87298	 26.620326	
7.94456	 26.384731	
8.01613	 26.518445	
8.0877	 26.480138	
8.15927	 26.342043	
8.23085	 26.605020	
8.30242	 26.571474	
8.37399	 26.732548	
8.44556	 26.357711	
8.51714	 26.440410	
8.58871	 26.375848	
8.66028	 26.344823	
8.73185	 26.227362	
8.80343	 26.194667	
8.875	 26.137734	
8.94657	 26.344595	
9.01815	 26.295875	
9.08972	 26.364621	
9.16129	 26.265048	
9.23286	 26.153830	
9.30444	 26.090738	
9.37601	 26.205880	
9.44758	 26.163382	
9.51915	 26.069627	
9.59073	 26.035025	
9.6623	 26.091828	
9.73387	 26.044400	
9.80544	 26.179828	
9.87702	 26.262083	
9.94859	 26.032120	
10.0202	 26.133691	
10.0917	 26.034862	
10.1633	 26.210389	
10.2349	 26.135545	
10.3065	 26.036002	
10.378	 26.173722	
10.4496	 26.061539	
10.5212	 26.122076	
10.5927	 28.588506	
10.6643	 28.360409	
10.7359	 30.187749	
10.8075	 31.575082	
10.879	 36.089761	
10.9506	 38.897259	
11.0222	 42.944574	
11.0937	 46.393868	
11.1653	 47.756421	
11.2369	 48.038905	
11.3085	 48.355596	
11.38	 48.432159	
11.4516	 48.041277	
11.5232	 48.367479	
